<?xml version="1.0" encoding="utf-8"?>
<!-- Generator: Adobe Illustrator 22.1.0, SVG Export Plug-In . SVG Version: 6.00 Build 0)  -->
<svg version="1.1" id="Layer_1" xmlns="http://www.w3.org/2000/svg" xmlns:xlink="http://www.w3.org/1999/xlink" x="0px" y="0px"
	 viewBox="0 0 36.8 33.1" style="enable-background:new 0 0 36.8 33.1;" xml:space="preserve">
<style type="text/css">
	.st0{fill:none;stroke:#FDFFFF;}
	.st1{fill:none;stroke:#FFFFFF;}
	.st2{fill:none;stroke:#FFFFFF;stroke-width:2;}
</style>
<g id="Symbol_1_2" transform="translate(7638.243 5765)">
	<g id="Ellipse_123" transform="translate(-7631.111 -5765)">
		<ellipse cx="4.2" cy="4.1" rx="4.2" ry="4.1"/>
		<ellipse class="st0" cx="4.2" cy="4.1" rx="3.7" ry="3.6"/>
	</g>
	<g id="Ellipse_124" transform="translate(-7616.847 -5765)">
		<ellipse cx="4.2" cy="4.1" rx="4.2" ry="4.1"/>
		<ellipse class="st1" cx="4.2" cy="4.1" rx="3.7" ry="3.6"/>
	</g>
	<g id="Ellipse_125" transform="translate(-7625.167 -5754.352)">
		<ellipse cx="5.3" cy="5.3" rx="5.3" ry="5.3"/>
		<ellipse class="st1" cx="5.3" cy="5.3" rx="4.8" ry="4.8"/>
	</g>
	<g id="Ellipse_126" transform="translate(-7616.847 -5741.338)">
		<ellipse cx="4.8" cy="4.7" rx="4.8" ry="4.7"/>
		<ellipse class="st1" cx="4.8" cy="4.7" rx="4.3" ry="4.2"/>
	</g>
	<g id="Ellipse_127" transform="translate(-7638.243 -5753.169)">
		<ellipse cx="4.8" cy="4.7" rx="4.8" ry="4.7"/>
		<ellipse class="st1" cx="4.8" cy="4.7" rx="4.3" ry="4.2"/>
	</g>
	<g id="Ellipse_128" transform="translate(-7608.526 -5751.986)">
		<ellipse cx="3.6" cy="3.5" rx="3.6" ry="3.5"/>
		<ellipse class="st1" cx="3.6" cy="3.5" rx="3.1" ry="3"/>
	</g>
	<g id="Ellipse_129" transform="translate(-7629.922 -5740.155)">
		<ellipse cx="3.6" cy="3.5" rx="3.6" ry="3.5"/>
		<ellipse class="st1" cx="3.6" cy="3.5" rx="3.1" ry="3"/>
	</g>
	<path id="Path_709" class="st2" d="M-7622.8-5760.9h6.7"/>
	<path id="Path_710" class="st2" d="M-7614.5-5757.5l-2.4,4.6"/>
	<path id="Path_711" class="st2" d="M-7629.3-5749h4.6"/>
	<path id="Path_712" class="st2" d="M-7609.9-5740.2l3-5.9"/>
	<path id="Path_713" class="st2" d="M-7614.5-5740.2l-2.5-4.7"/>
	<path id="Path_714" class="st2" d="M-7631.1-5744.9l3.6,5.8"/>
</g>
</svg>
