<?xml version="1.0" encoding="UTF-8"?>
<svg width="132px" height="26px" viewBox="0 0 132 26" version="1.1" xmlns="http://www.w3.org/2000/svg" xmlns:xlink="http://www.w3.org/1999/xlink">
    <!-- Generator: Sketch 49.3 (51167) - http://www.bohemiancoding.com/sketch -->
    <title>Group 2</title>
    <desc>Created with Sketch.</desc>
    <defs></defs>
    <g id="Page-1" stroke="none" stroke-width="1" fill="none" fill-rule="evenodd">
        <g id="Artboard-Copy" transform="translate(-1038.000000, -5357.000000)">
            <g id="Index" transform="translate(0.000000, 3856.000000)">
                <g id="Dark">
                    <g id="Group" transform="translate(798.000000, 1021.000000)">
                        <g id="Group-2" transform="translate(240.000000, 480.000000)">
                            <path d="M8.75253047,16.757658 C9.07770711,17.4654598 9.49726943,18.1047715 9.99812592,18.6650883 C8.89379227,19.2562887 7.73645904,19.5199549 6.47481591,19.5199549 C2.72282648,19.5199549 0,17.0599812 0,13.1337716 C0,9.17961973 2.86176559,6.71964606 6.47481591,6.71964606 C7.76053056,6.71964606 8.77449045,6.99738841 9.79605187,7.54068774 C9.3196892,8.12264411 8.92673224,8.78296499 8.62816096,9.50988522 C8.01180342,9.26428703 7.37749782,9.15251779 6.72418838,9.15251779 C4.50116262,9.15251779 2.77814874,10.562659 2.77814874,13.1337716 C2.77814874,15.5666434 4.44584036,17.1150254 6.83588867,17.1150254 C7.52066,17.1150254 8.15285406,16.9917011 8.75253047,16.757658 Z M16.2982966,6.71964606 C19.9936969,6.71964606 22.6614123,9.318701 22.6614123,13.1337716 C22.6614123,16.9217403 19.9936969,19.5199549 16.2982966,19.5199549 C12.6309798,19.5199549 9.96347561,16.9217403 9.96347561,13.1337716 C9.96347561,9.318701 12.6309798,6.71964606 16.2982966,6.71964606 Z M16.2982966,9.06953123 C14.2422934,9.06953123 12.7416243,10.6458556 12.7416243,13.1337716 C12.7416243,15.5947958 14.2422934,17.1700697 16.2982966,17.1700697 C18.4106779,17.1700697 19.8832635,15.5947958 19.8832635,13.1337716 C19.8832635,10.6458556 18.4106779,9.06953123 16.2982966,9.06953123 Z M24.412404,19.2435991 L24.412404,6.99583372 L27.1624693,6.99583372 L27.1624693,19.2435991 L24.412404,19.2435991 Z M24.0504866,3.23580735 C24.0504866,2.29606337 24.8570936,1.54960454 25.7735005,1.54960454 C26.690752,1.54960454 27.4965144,2.29606337 27.4965144,3.23580735 C27.4965144,4.20370373 26.690752,4.97831496 25.7735005,4.97831496 C24.8570936,4.97831496 24.0504866,4.20370373 24.0504866,3.23580735 Z M29.562294,7.77050799 C31.2853079,7.10703571 33.3976892,6.71962505 35.203053,6.71962505 C38.3433302,6.71962505 40.3440112,7.90853879 40.3440112,11.3643512 L40.3440112,19.2436622 L37.6211847,19.2436622 L37.6211847,11.6135209 C37.6211847,9.84412146 36.5096718,9.20754103 34.9809193,9.20754103 C34.0081344,9.20754103 33.0366164,9.34578193 32.3134151,9.56700938 L32.3134151,19.2436622 L29.562294,19.2436622 L29.562294,7.77050799 Z M42.647571,0.443635338 L45.3976363,0.443635338 L45.3976363,7.32815812 C45.9810538,7.02394411 47.1206501,6.71973009 48.2038684,6.71973009 C51.7607519,6.71973009 54.4282561,8.98641862 54.4282561,12.9126282 C54.4282561,16.8657296 51.7888353,19.5198288 47.2323504,19.5198288 C45.4540143,19.5198288 43.8980229,19.1605706 42.647571,18.7183257 L42.647571,0.443635338 Z M45.3976363,16.9218243 C45.9257316,17.0869571 46.6208494,17.1699436 47.3147004,17.1699436 C49.8434766,17.1699436 51.6501074,15.7879548 51.6501074,12.9676724 C51.6501074,10.5896349 49.9551769,9.17970377 47.8710903,9.17970377 C46.7876608,9.17970377 45.953815,9.45681584 45.3976363,9.76102985 L45.3976363,16.9218243 Z M62.3744118,11.0321528 C62.3744118,9.70499817 61.3735435,9.09762061 60.0126581,9.09762061 C58.5953947,9.09762061 57.4838819,9.51192312 56.4559858,10.0924088 L56.4559858,7.71437126 C57.5392041,7.10699369 58.9283841,6.71958303 60.4573477,6.71958303 C63.1518796,6.71958303 65.0691549,7.82551021 65.0691549,10.8939119 L65.0691549,18.9944504 C63.9023197,19.2986644 62.2356839,19.4927899 60.8465039,19.4927899 C57.6509044,19.4927899 55.3163895,18.5251036 55.3163895,15.7598655 C55.3163895,13.2719495 57.4557984,12.0559338 61.0124707,12.0559338 L62.3744118,12.0559338 L62.3744118,11.0321528 Z M62.3744118,13.8803775 L61.2075767,13.8803775 C59.2894568,13.8803775 58.039216,14.4327108 58.039216,15.6768789 C58.039216,16.9487792 59.2068957,17.4462784 60.8737428,17.4462784 C61.2911936,17.4462784 61.8746111,17.3912341 62.3744118,17.3080375 L62.3744118,13.8803775 Z M67.0697936,15.9260067 C68.2093899,16.7827641 69.5702753,17.3082055 70.8205161,17.3082055 C72.0437293,17.3082055 72.8494917,16.8936929 72.8494917,15.9260067 C72.8494917,14.930168 72.127135,14.5709097 70.5430602,14.1566072 C67.9870451,13.5761215 66.9027711,12.5533909 66.9027711,10.4245231 C66.9027711,7.93555669 68.7928075,6.7197511 71.2932892,6.7197511 C72.6824691,6.7197511 73.793982,7.02396512 74.821878,7.65949508 L74.821878,10.1753534 C73.7386597,9.4017926 72.6824691,8.93139538 71.376906,8.93139538 C70.1819874,8.93139538 69.5432476,9.5118811 69.5432476,10.3135943 C69.5432476,11.1150973 70.0702871,11.5304503 71.4875505,11.9168105 C74.2948385,12.5252385 75.5169959,13.5761215 75.5169959,15.7879759 C75.5169959,18.3588784 73.5443984,19.5198498 70.8768941,19.5198498 C69.4315473,19.5198498 67.9870451,19.1334896 67.0697936,18.5250616 L67.0697936,15.9260067 Z M79.2819501,13.7422627 L79.2819501,13.7973069 C79.4489727,15.9810089 81.3379534,17.1699226 83.2550175,17.1699226 C84.9499479,17.1699226 86.1729499,16.7827221 87.3951073,15.9810089 L87.3951073,18.3869888 C86.2835944,19.1605495 84.6441974,19.5198078 83.0609672,19.5198078 C79.2266279,19.5198078 76.6144459,17.0869361 76.6144459,13.2168212 C76.6144459,9.31876403 79.1702499,6.71970909 82.5609554,6.71970909 C86.1448665,6.71970909 87.8397969,9.01455001 87.8397969,12.3592234 L87.8397969,13.7422627 L79.2819501,13.7422627 Z M85.2556984,11.9728632 C85.2003761,10.0643825 84.2558858,9.01455001 82.4775497,9.01455001 C80.8932637,9.01455001 79.7266398,10.1204772 79.3653558,11.9728632 L85.2556984,11.9728632 Z" id="Logo-Copy" fill="#FFFFFF"></path>
                            <rect id="Rectangle-11-Copy" fill="#4B535E" x="97.5997744" y="0" width="1" height="25.7308496" rx="0.5"></rect>
                            <path d="M110.41388,14.7425659 L110.41388,19.3140329 L109.134293,19.3140329 L109.134293,7.06167749 C109.691533,6.97930871 110.578988,6.87634774 111.301336,6.87634774 C114.68605,6.87634774 116.110106,8.44135449 116.110106,10.7476802 C116.110106,13.3628889 114.27328,14.7837502 111.198143,14.7837502 C110.97112,14.7837502 110.682181,14.7631581 110.41388,14.7425659 Z M110.41388,8.00891841 L110.41388,13.6717718 C110.640904,13.692364 110.867927,13.692364 111.074312,13.692364 C113.612848,13.692364 114.809881,12.7245308 114.809881,10.7476802 C114.809881,9.16208128 113.881148,7.96773402 111.23942,7.96773402 C110.991758,7.96773402 110.702819,7.98832622 110.41388,8.00891841 Z M118.775276,11.8184743 L118.775276,19.3140329 L117.536966,19.3140329 L117.536966,11.1595241 C118.486337,10.5623505 119.642093,10.191691 120.880403,10.191691 C121.375727,10.191691 121.871051,10.2534676 122.387013,10.3770207 L122.387013,11.5919602 C121.850412,11.4066304 121.210619,11.365446 120.797849,11.365446 C119.910393,11.365446 119.249961,11.5507758 118.775276,11.8184743 Z M122.720032,14.8249346 C122.720032,12.0449884 124.556859,10.1299144 127.239864,10.1299144 C129.922869,10.1299144 131.759695,12.0449884 131.759695,14.8249346 C131.759695,17.6048808 129.922869,19.5199549 127.239864,19.5199549 C124.556859,19.5199549 122.720032,17.6048808 122.720032,14.8249346 Z M130.500747,14.8249346 C130.500747,12.6421621 129.138606,11.2007085 127.239864,11.2007085 C125.341122,11.2007085 123.978981,12.6421621 123.978981,14.8249346 C123.978981,17.0077072 125.341122,18.4491608 127.239864,18.4491608 C129.138606,18.4491608 130.500747,17.0077072 130.500747,14.8249346 Z" id="Pro-Copy" fill="#BCBFC3"></path>
                        </g>
                    </g>
                </g>
            </g>
        </g>
    </g>
</svg>