<?xml version="1.0" encoding="UTF-8"?>
<svg xmlns="http://www.w3.org/2000/svg" xmlns:xlink="http://www.w3.org/1999/xlink" width="32pt" height="32pt" viewBox="0 0 32 32" version="1.1">
<g id="surface1">
<path style=" stroke:none;fill-rule:nonzero;fill:rgb(0%,0%,0%);fill-opacity:1;" d="M 13.527344 3.964844 C 13.527344 1.773438 11.90625 0 9.90625 0 C 7.90625 0 6.285156 1.773438 6.285156 3.964844 C 6.285156 6.152344 7.90625 7.925781 9.90625 7.925781 C 11.90625 7.925781 13.527344 6.152344 13.527344 3.964844 Z M 13.527344 3.964844 "/>
<path style="fill:none;stroke-width:1;stroke-linecap:butt;stroke-linejoin:miter;stroke:rgb(99.215686%,100%,100%);stroke-opacity:1;stroke-miterlimit:4;" d="M 7.901996 4.101135 C 7.901996 2.113196 6.24391 0.501025 4.20075 0.501025 C 2.15759 0.501025 0.499505 2.113196 0.499505 4.101135 C 0.499505 6.089075 2.15759 7.701245 4.20075 7.701245 C 6.24391 7.701245 7.901996 6.089075 7.901996 4.101135 Z M 7.901996 4.101135 " transform="matrix(0.862252,0,0,0.966767,6.284145,0)"/>
<path style=" stroke:none;fill-rule:nonzero;fill:rgb(0%,0%,0%);fill-opacity:1;" d="M 25.828125 3.964844 C 25.828125 1.773438 24.203125 0 22.203125 0 C 20.203125 0 18.582031 1.773438 18.582031 3.964844 C 18.582031 6.152344 20.203125 7.925781 22.203125 7.925781 C 24.203125 7.925781 25.828125 6.152344 25.828125 3.964844 Z M 25.828125 3.964844 "/>
<path style="fill:none;stroke-width:1;stroke-linecap:butt;stroke-linejoin:miter;stroke:rgb(100%,100%,100%);stroke-opacity:1;stroke-miterlimit:4;" d="M 7.899343 4.101135 C 7.899343 2.113196 6.241258 0.501025 4.198098 0.501025 C 2.154938 0.501025 0.501383 2.113196 0.501383 4.101135 C 0.501383 6.089075 2.154938 7.701245 4.198098 7.701245 C 6.241258 7.701245 7.899343 6.089075 7.899343 4.101135 Z M 7.899343 4.101135 " transform="matrix(0.862252,0,0,0.966767,18.583307,0)"/>
<path style=" stroke:none;fill-rule:nonzero;fill:rgb(0%,0%,0%);fill-opacity:1;" d="M 20.550781 15.417969 C 20.550781 12.589844 18.503906 10.292969 15.980469 10.292969 C 13.457031 10.292969 11.410156 12.589844 11.410156 15.417969 C 11.410156 18.246094 13.457031 20.542969 15.980469 20.542969 C 18.503906 20.542969 20.550781 18.246094 20.550781 15.417969 Z M 20.550781 15.417969 "/>
<path style="fill:none;stroke-width:1;stroke-linecap:butt;stroke-linejoin:miter;stroke:rgb(100%,100%,100%);stroke-opacity:1;stroke-miterlimit:4;" d="M 10.098924 5.299961 C 10.098924 2.649375 7.951567 0.499815 5.301349 0.499815 C 2.65113 0.499815 0.499243 2.649375 0.499243 5.299961 C 0.499243 7.950547 2.65113 10.100108 5.301349 10.100108 C 7.951567 10.100108 10.098924 7.950547 10.098924 5.299961 Z M 10.098924 5.299961 " transform="matrix(0.862252,0,0,0.966767,11.40937,10.294139)"/>
<path style=" stroke:none;fill-rule:nonzero;fill:rgb(0%,0%,0%);fill-opacity:1;" d="M 26.859375 27.417969 C 26.859375 24.910156 25.007812 22.875 22.722656 22.875 C 20.4375 22.875 18.582031 24.910156 18.582031 27.417969 C 18.582031 29.929688 20.4375 31.964844 22.722656 31.964844 C 25.007812 31.964844 26.859375 29.929688 26.859375 27.417969 Z M 26.859375 27.417969 "/>
<path style="fill:none;stroke-width:1;stroke-linecap:butt;stroke-linejoin:miter;stroke:rgb(100%,100%,100%);stroke-opacity:1;stroke-miterlimit:4;" d="M 9.09987 4.698461 C 9.09987 2.379199 7.174497 0.500354 4.800626 0.500354 C 2.426755 0.500354 0.501383 2.379199 0.501383 4.698461 C 0.501383 7.017724 2.426755 8.90061 4.800626 8.90061 C 7.174497 8.90061 9.09987 7.017724 9.09987 4.698461 Z M 9.09987 4.698461 " transform="matrix(0.862252,0,0,0.966767,18.583307,22.87565)"/>
<path style=" stroke:none;fill-rule:nonzero;fill:rgb(0%,0%,0%);fill-opacity:1;" d="M 8.414062 15.980469 C 8.414062 13.472656 6.558594 11.4375 4.273438 11.4375 C 1.988281 11.4375 0.132812 13.472656 0.132812 15.980469 C 0.132812 18.492188 1.988281 20.527344 4.273438 20.527344 C 6.558594 20.527344 8.414062 18.492188 8.414062 15.980469 Z M 8.414062 15.980469 "/>
<path style="fill:none;stroke-width:1;stroke-linecap:butt;stroke-linejoin:miter;stroke:rgb(100%,100%,100%);stroke-opacity:1;stroke-miterlimit:4;" d="M 9.099318 4.698797 C 9.099318 2.379535 7.173946 0.500689 4.800075 0.500689 C 2.426204 0.500689 0.500831 2.379535 0.500831 4.698797 C 0.500831 7.01806 2.426204 8.900946 4.800075 8.900946 C 7.173946 8.900946 9.099318 7.01806 9.099318 4.698797 Z M 9.099318 4.698797 " transform="matrix(0.862252,0,0,0.966767,0.134564,11.437825)"/>
<path style=" stroke:none;fill-rule:nonzero;fill:rgb(0%,0%,0%);fill-opacity:1;" d="M 31.964844 15.964844 C 31.964844 14.097656 30.578125 12.582031 28.863281 12.582031 C 27.148438 12.582031 25.757812 14.097656 25.757812 15.964844 C 25.757812 17.832031 27.148438 19.347656 28.863281 19.347656 C 30.578125 19.347656 31.964844 17.832031 31.964844 15.964844 Z M 31.964844 15.964844 "/>
<path style="fill:none;stroke-width:1;stroke-linecap:butt;stroke-linejoin:miter;stroke:rgb(100%,100%,100%);stroke-opacity:1;stroke-miterlimit:4;" d="M 6.699956 3.499635 C 6.699956 1.843019 5.313688 0.501564 3.601239 0.501564 C 1.88879 0.501564 0.497992 1.843019 0.497992 3.499635 C 0.497992 5.156251 1.88879 6.501747 3.601239 6.501747 C 5.313688 6.501747 6.699956 5.156251 6.699956 3.499635 Z M 6.699956 3.499635 " transform="matrix(0.862252,0,0,0.966767,25.758106,12.581511)"/>
<path style=" stroke:none;fill-rule:nonzero;fill:rgb(0%,0%,0%);fill-opacity:1;" d="M 13.515625 27.402344 C 13.515625 25.535156 12.128906 24.019531 10.414062 24.019531 C 8.699219 24.019531 7.308594 25.535156 7.308594 27.402344 C 7.308594 29.273438 8.699219 30.785156 10.414062 30.785156 C 12.128906 30.785156 13.515625 29.273438 13.515625 27.402344 Z M 13.515625 27.402344 "/>
<path style="fill:none;stroke-width:1;stroke-linecap:butt;stroke-linejoin:miter;stroke:rgb(100%,100%,100%);stroke-opacity:1;stroke-miterlimit:4;" d="M 6.699405 3.499299 C 6.699405 1.842683 5.313137 0.501228 3.600688 0.501228 C 1.888239 0.501228 0.501971 1.842683 0.501971 3.499299 C 0.501971 5.155916 1.888239 6.501411 3.600688 6.501411 C 5.313137 6.501411 6.699405 5.155916 6.699405 3.499299 Z M 6.699405 3.499299 " transform="matrix(0.862252,0,0,0.966767,7.309362,24.019335)"/>
<path style="fill:none;stroke-width:2;stroke-linecap:butt;stroke-linejoin:miter;stroke:rgb(100%,100%,100%);stroke-opacity:1;stroke-miterlimit:4;" d="M -7622.801278 -5760.898865 L -7616.100982 -5760.898865 " transform="matrix(0.862252,0,0,0.966767,6586.224715,5573.413897)"/>
<path style="fill:none;stroke-width:2;stroke-linecap:butt;stroke-linejoin:miter;stroke:rgb(100%,100%,100%);stroke-opacity:1;stroke-miterlimit:4;" d="M -7614.50179 -5757.500781 L -7616.898313 -5752.898621 " transform="matrix(0.862252,0,0,0.966767,6586.224715,5573.413897)"/>
<path style="fill:none;stroke-width:2;stroke-linecap:butt;stroke-linejoin:miter;stroke:rgb(100%,100%,100%);stroke-opacity:1;stroke-miterlimit:4;" d="M -7629.302242 -5748.999512 L -7624.699469 -5748.999512 " transform="matrix(0.862252,0,0,0.966767,6586.224715,5573.413897)"/>
<path style="fill:none;stroke-width:2;stroke-linecap:butt;stroke-linejoin:miter;stroke:rgb(100%,100%,100%);stroke-opacity:1;stroke-miterlimit:4;" d="M -7609.899017 -5740.199243 L -7606.899967 -5746.098413 " transform="matrix(0.862252,0,0,0.966767,6586.224715,5573.413897)"/>
<path style="fill:none;stroke-width:2;stroke-linecap:butt;stroke-linejoin:miter;stroke:rgb(100%,100%,100%);stroke-opacity:1;stroke-miterlimit:4;" d="M -7614.50179 -5740.199243 L -7616.997979 -5744.898376 " transform="matrix(0.862252,0,0,0.966767,6586.224715,5573.413897)"/>
<path style="fill:none;stroke-width:2;stroke-linecap:butt;stroke-linejoin:miter;stroke:rgb(100%,100%,100%);stroke-opacity:1;stroke-miterlimit:4;" d="M -7631.100766 -5744.898376 L -7627.499187 -5739.10022 " transform="matrix(0.862252,0,0,0.966767,6586.224715,5573.413897)"/>
</g>
</svg>
